<?xml version="1.0" encoding="utf-8"?>
<!-- Generator: Adobe Illustrator 16.0.0, SVG Export Plug-In . SVG Version: 6.00 Build 0)  -->
<!DOCTYPE svg PUBLIC "-//W3C//DTD SVG 1.1//EN" "http://www.w3.org/Graphics/SVG/1.1/DTD/svg11.dtd">
<svg version="1.1" id="Layer_1" xmlns="http://www.w3.org/2000/svg" xmlns:xlink="http://www.w3.org/1999/xlink" x="0px" y="0px"
	 width="381.849px" height="162.936px" viewBox="0 0 381.849 162.936" enable-background="new 0 0 381.849 162.936"
	 xml:space="preserve">
<polygon fill="#4F8CB4" points="347.888,1.777 347.888,1.778 347.872,1.778 312.138,65.222 276.745,1.777 0,1.776 0,35.737 
	105.105,35.737 105.105,64.957 0,64.957 0,98.917 105.104,98.917 105.104,128.137 0,128.137 0,162.098 276.744,162.351 
	276.745,71.584 312.138,134.426 347.888,70.951 347.888,162.351 381.848,162.351 381.849,1.777 "/>
<g>
	<defs>
		<rect id="SVGID_1_" x="-313.076" y="-223.937" width="1008" height="612"/>
	</defs>
	<clipPath id="SVGID_2_">
		<use xlink:href="#SVGID_1_"  overflow="visible"/>
	</clipPath>
	<path clip-path="url(#SVGID_2_)" fill="#FFFFFF" d="M139.382,162.936v-34.612l57.505-62.404c5.507-5.974,8.262-10.011,8.262-15.684
		c0-8.568-4.898-16.27-14.688-16.27c-13.41,0-17.118,11.798-17.118,17.611v13.386l-33.961-0.001V35.69
		c0.214-5.178,6.622-16.708,13.442-22.379C163.159,4.717,175.465,0,190.461,0c15.451,0,28.034,4.447,37.752,13.336
		c9.713,8.889,14.572,20.919,14.572,36.091c0,8.126-1.491,14.176-4.476,19.54c-2.983,5.364-8.226,12.034-15.72,20.002
		l-37.309,39.416h57.504l-0.002,34.551H139.382z"/>
</g>
</svg>
